{
  "asset": {
    "generator": "glTF-Transform v4.3.0",
    "version": "2.0"
  },
  "accessors": [
    {
      "type": "SCALAR",
      "componentType": 5126,
      "count": 61,
      "max": [
        2.0333333015441895
      ],
      "min": [
        0.03333333507180214
      ],
      "bufferView": 0,
      "byteOffset": 0
    },
    {
      "type": "VEC3",
      "componentType": 5126,
      "count": 61,
      "bufferView": 0,
      "byteOffset": 244
    },
    {
      "type": "SCALAR",
      "componentType": 5126,
      "count": 2,
      "max": [
        2.0333333015441895
      ],
      "min": [
        0.03333333507180214
      ],
      "bufferView": 0,
      "byteOffset": 976
    },
    {
      "type": "VEC3",
      "componentType": 5126,
      "count": 2,
      "bufferView": 0,
      "byteOffset": 984
    },
    {
      "type": "VEC3",
      "componentType": 5126,
      "count": 2,
      "bufferView": 0,
      "byteOffset": 1008
    },
    {
      "type": "VEC3",
      "componentType": 5126,
      "count": 2,
      "bufferView": 0,
      "byteOffset": 1032
    },
    {
      "type": "VEC3",
      "componentType": 5126,
      "count": 2,
      "bufferView": 0,
      "byteOffset": 1056
    },
    {
      "type": "VEC3",
      "componentType": 5126,
      "count": 2,
      "bufferView": 0,
      "byteOffset": 1080
    },
    {
      "type": "VEC3",
      "componentType": 5126,
      "count": 2,
      "bufferView": 0,
      "byteOffset": 1104
    },
    {
      "type": "VEC3",
      "componentType": 5126,
      "count": 2,
      "bufferView": 0,
      "byteOffset": 1128
    },
    {
      "type": "VEC3",
      "componentType": 5126,
      "count": 2,
      "bufferView": 0,
      "byteOffset": 1152
    },
    {
      "type": "VEC3",
      "componentType": 5126,
      "count": 2,
      "bufferView": 0,
      "byteOffset": 1176
    },
    {
      "type": "VEC3",
      "componentType": 5126,
      "count": 2,
      "bufferView": 0,
      "byteOffset": 1200
    },
    {
      "type": "VEC3",
      "componentType": 5126,
      "count": 2,
      "bufferView": 0,
      "byteOffset": 1224
    },
    {
      "type": "VEC3",
      "componentType": 5126,
      "count": 2,
      "bufferView": 0,
      "byteOffset": 1248
    },
    {
      "type": "VEC3",
      "componentType": 5126,
      "count": 2,
      "bufferView": 0,
      "byteOffset": 1272
    },
    {
      "type": "VEC3",
      "componentType": 5126,
      "count": 2,
      "bufferView": 0,
      "byteOffset": 1296
    },
    {
      "type": "VEC3",
      "componentType": 5126,
      "count": 2,
      "bufferView": 0,
      "byteOffset": 1320
    },
    {
      "type": "VEC3",
      "componentType": 5126,
      "count": 2,
      "bufferView": 0,
      "byteOffset": 1344
    },
    {
      "type": "VEC3",
      "componentType": 5126,
      "count": 2,
      "bufferView": 0,
      "byteOffset": 1368
    },
    {
      "type": "VEC3",
      "componentType": 5126,
      "count": 2,
      "bufferView": 0,
      "byteOffset": 1392
    },
    {
      "type": "VEC3",
      "componentType": 5126,
      "count": 2,
      "bufferView": 0,
      "byteOffset": 1416
    },
    {
      "type": "VEC3",
      "componentType": 5126,
      "count": 2,
      "bufferView": 0,
      "byteOffset": 1440
    },
    {
      "type": "VEC3",
      "componentType": 5126,
      "count": 2,
      "bufferView": 0,
      "byteOffset": 1464
    },
    {
      "type": "VEC3",
      "componentType": 5126,
      "count": 2,
      "bufferView": 0,
      "byteOffset": 1488
    },
    {
      "type": "VEC3",
      "componentType": 5126,
      "count": 2,
      "bufferView": 0,
      "byteOffset": 1512
    },
    {
      "type": "VEC3",
      "componentType": 5126,
      "count": 2,
      "bufferView": 0,
      "byteOffset": 1536
    },
    {
      "type": "VEC3",
      "componentType": 5126,
      "count": 2,
      "bufferView": 0,
      "byteOffset": 1560
    },
    {
      "type": "VEC3",
      "componentType": 5126,
      "count": 2,
      "bufferView": 0,
      "byteOffset": 1584
    },
    {
      "type": "VEC3",
      "componentType": 5126,
      "count": 2,
      "bufferView": 0,
      "byteOffset": 1608
    },
    {
      "type": "VEC3",
      "componentType": 5126,
      "count": 2,
      "bufferView": 0,
      "byteOffset": 1632
    },
    {
      "type": "VEC3",
      "componentType": 5126,
      "count": 2,
      "bufferView": 0,
      "byteOffset": 1656
    },
    {
      "type": "VEC3",
      "componentType": 5126,
      "count": 2,
      "bufferView": 0,
      "byteOffset": 1680
    },
    {
      "type": "VEC3",
      "componentType": 5126,
      "count": 2,
      "bufferView": 0,
      "byteOffset": 1704
    },
    {
      "type": "VEC3",
      "componentType": 5126,
      "count": 2,
      "bufferView": 0,
      "byteOffset": 1728
    },
    {
      "type": "VEC3",
      "componentType": 5126,
      "count": 2,
      "bufferView": 0,
      "byteOffset": 1752
    },
    {
      "type": "VEC3",
      "componentType": 5126,
      "count": 2,
      "bufferView": 0,
      "byteOffset": 1776
    },
    {
      "type": "VEC3",
      "componentType": 5126,
      "count": 2,
      "bufferView": 0,
      "byteOffset": 1800
    },
    {
      "type": "VEC3",
      "componentType": 5126,
      "count": 2,
      "bufferView": 0,
      "byteOffset": 1824
    },
    {
      "type": "VEC3",
      "componentType": 5126,
      "count": 2,
      "bufferView": 0,
      "byteOffset": 1848
    },
    {
      "type": "VEC3",
      "componentType": 5126,
      "count": 2,
      "bufferView": 0,
      "byteOffset": 1872
    },
    {
      "type": "VEC3",
      "componentType": 5126,
      "count": 2,
      "bufferView": 0,
      "byteOffset": 1896
    },
    {
      "type": "VEC3",
      "componentType": 5126,
      "count": 2,
      "bufferView": 0,
      "byteOffset": 1920
    },
    {
      "type": "VEC3",
      "componentType": 5126,
      "count": 2,
      "bufferView": 0,
      "byteOffset": 1944
    },
    {
      "type": "VEC3",
      "componentType": 5126,
      "count": 2,
      "bufferView": 0,
      "byteOffset": 1968
    },
    {
      "type": "VEC3",
      "componentType": 5126,
      "count": 2,
      "bufferView": 0,
      "byteOffset": 1992
    },
    {
      "type": "VEC3",
      "componentType": 5126,
      "count": 2,
      "bufferView": 0,
      "byteOffset": 2016
    },
    {
      "type": "VEC3",
      "componentType": 5126,
      "count": 2,
      "bufferView": 0,
      "byteOffset": 2040
    },
    {
      "type": "VEC3",
      "componentType": 5126,
      "count": 2,
      "bufferView": 0,
      "byteOffset": 2064
    },
    {
      "type": "SCALAR",
      "componentType": 5126,
      "count": 45,
      "max": [
        2.0333333015441895
      ],
      "min": [
        0.03333333507180214
      ],
      "bufferView": 0,
      "byteOffset": 2088
    },
    {
      "type": "VEC4",
      "componentType": 5126,
      "count": 45,
      "bufferView": 0,
      "byteOffset": 2268
    },
    {
      "type": "SCALAR",
      "componentType": 5126,
      "count": 52,
      "max": [
        2.0333333015441895
      ],
      "min": [
        0.03333333507180214
      ],
      "bufferView": 0,
      "byteOffset": 2988
    },
    {
      "type": "VEC4",
      "componentType": 5126,
      "count": 52,
      "bufferView": 0,
      "byteOffset": 3196
    },
    {
      "type": "SCALAR",
      "componentType": 5126,
      "count": 59,
      "max": [
        2.0333333015441895
      ],
      "min": [
        0.03333333507180214
      ],
      "bufferView": 0,
      "byteOffset": 4028
    },
    {
      "type": "VEC4",
      "componentType": 5126,
      "count": 59,
      "bufferView": 0,
      "byteOffset": 4264
    },
    {
      "type": "SCALAR",
      "componentType": 5126,
      "count": 57,
      "max": [
        2.0333333015441895
      ],
      "min": [
        0.03333333507180214
      ],
      "bufferView": 0,
      "byteOffset": 5208
    },
    {
      "type": "VEC4",
      "componentType": 5126,
      "count": 57,
      "bufferView": 0,
      "byteOffset": 5436
    },
    {
      "type": "SCALAR",
      "componentType": 5126,
      "count": 16,
      "max": [
        2.0333333015441895
      ],
      "min": [
        0.03333333507180214
      ],
      "bufferView": 0,
      "byteOffset": 6348
    },
    {
      "type": "VEC4",
      "componentType": 5126,
      "count": 16,
      "bufferView": 0,
      "byteOffset": 6412
    },
    {
      "type": "SCALAR",
      "componentType": 5126,
      "count": 54,
      "max": [
        2.0333333015441895
      ],
      "min": [
        0.03333333507180214
      ],
      "bufferView": 0,
      "byteOffset": 6668
    },
    {
      "type": "VEC4",
      "componentType": 5126,
      "count": 54,
      "bufferView": 0,
      "byteOffset": 6884
    },
    {
      "type": "SCALAR",
      "componentType": 5126,
      "count": 57,
      "max": [
        2.0333333015441895
      ],
      "min": [
        0.03333333507180214
      ],
      "bufferView": 0,
      "byteOffset": 7748
    },
    {
      "type": "VEC4",
      "componentType": 5126,
      "count": 57,
      "bufferView": 0,
      "byteOffset": 7976
    },
    {
      "type": "SCALAR",
      "componentType": 5126,
      "count": 56,
      "max": [
        2.0333333015441895
      ],
      "min": [
        0.03333333507180214
      ],
      "bufferView": 0,
      "byteOffset": 8888
    },
    {
      "type": "VEC4",
      "componentType": 5126,
      "count": 56,
      "bufferView": 0,
      "byteOffset": 9112
    },
    {
      "type": "SCALAR",
      "componentType": 5126,
      "count": 14,
      "max": [
        2.0333333015441895
      ],
      "min": [
        0.03333333507180214
      ],
      "bufferView": 0,
      "byteOffset": 10008
    },
    {
      "type": "VEC4",
      "componentType": 5126,
      "count": 14,
      "bufferView": 0,
      "byteOffset": 10064
    },
    {
      "type": "SCALAR",
      "componentType": 5126,
      "count": 46,
      "max": [
        2.0333333015441895
      ],
      "min": [
        0.03333333507180214
      ],
      "bufferView": 0,
      "byteOffset": 10288
    },
    {
      "type": "VEC4",
      "componentType": 5126,
      "count": 46,
      "bufferView": 0,
      "byteOffset": 10472
    },
    {
      "type": "SCALAR",
      "componentType": 5126,
      "count": 15,
      "max": [
        2.0333333015441895
      ],
      "min": [
        0.03333333507180214
      ],
      "bufferView": 0,
      "byteOffset": 11208
    },
    {
      "type": "VEC4",
      "componentType": 5126,
      "count": 15,
      "bufferView": 0,
      "byteOffset": 11268
    },
    {
      "type": "SCALAR",
      "componentType": 5126,
      "count": 24,
      "max": [
        2.0333333015441895
      ],
      "min": [
        0.03333333507180214
      ],
      "bufferView": 0,
      "byteOffset": 11508
    },
    {
      "type": "VEC4",
      "componentType": 5126,
      "count": 24,
      "bufferView": 0,
      "byteOffset": 11604
    },
    {
      "type": "SCALAR",
      "componentType": 5126,
      "count": 20,
      "max": [
        2.0333333015441895
      ],
      "min": [
        0.03333333507180214
      ],
      "bufferView": 0,
      "byteOffset": 11988
    },
    {
      "type": "VEC4",
      "componentType": 5126,
      "count": 20,
      "bufferView": 0,
      "byteOffset": 12068
    },
    {
      "type": "SCALAR",
      "componentType": 5126,
      "count": 28,
      "max": [
        2.0333333015441895
      ],
      "min": [
        0.03333333507180214
      ],
      "bufferView": 0,
      "byteOffset": 12388
    },
    {
      "type": "VEC4",
      "componentType": 5126,
      "count": 28,
      "bufferView": 0,
      "byteOffset": 12500
    },
    {
      "type": "SCALAR",
      "componentType": 5126,
      "count": 18,
      "max": [
        2.0333333015441895
      ],
      "min": [
        0.03333333507180214
      ],
      "bufferView": 0,
      "byteOffset": 12948
    },
    {
      "type": "VEC4",
      "componentType": 5126,
      "count": 18,
      "bufferView": 0,
      "byteOffset": 13020
    },
    {
      "type": "SCALAR",
      "componentType": 5126,
      "count": 8,
      "max": [
        2.0333333015441895
      ],
      "min": [
        0.03333333507180214
      ],
      "bufferView": 0,
      "byteOffset": 13308
    },
    {
      "type": "VEC4",
      "componentType": 5126,
      "count": 8,
      "bufferView": 0,
      "byteOffset": 13340
    },
    {
      "type": "SCALAR",
      "componentType": 5126,
      "count": 14,
      "max": [
        2.0333333015441895
      ],
      "min": [
        0.03333333507180214
      ],
      "bufferView": 0,
      "byteOffset": 13468
    },
    {
      "type": "VEC4",
      "componentType": 5126,
      "count": 14,
      "bufferView": 0,
      "byteOffset": 13524
    },
    {
      "type": "SCALAR",
      "componentType": 5126,
      "count": 39,
      "max": [
        2.0333333015441895
      ],
      "min": [
        0.03333333507180214
      ],
      "bufferView": 0,
      "byteOffset": 13748
    },
    {
      "type": "VEC4",
      "componentType": 5126,
      "count": 39,
      "bufferView": 0,
      "byteOffset": 13904
    },
    {
      "type": "SCALAR",
      "componentType": 5126,
      "count": 12,
      "max": [
        2.0333333015441895
      ],
      "min": [
        0.03333333507180214
      ],
      "bufferView": 0,
      "byteOffset": 14528
    },
    {
      "type": "VEC4",
      "componentType": 5126,
      "count": 12,
      "bufferView": 0,
      "byteOffset": 14576
    },
    {
      "type": "SCALAR",
      "componentType": 5126,
      "count": 11,
      "max": [
        2.0333333015441895
      ],
      "min": [
        0.03333333507180214
      ],
      "bufferView": 0,
      "byteOffset": 14768
    },
    {
      "type": "VEC4",
      "componentType": 5126,
      "count": 11,
      "bufferView": 0,
      "byteOffset": 14812
    },
    {
      "type": "SCALAR",
      "componentType": 5126,
      "count": 24,
      "max": [
        2.0333333015441895
      ],
      "min": [
        0.03333333507180214
      ],
      "bufferView": 0,
      "byteOffset": 14988
    },
    {
      "type": "VEC4",
      "componentType": 5126,
      "count": 24,
      "bufferView": 0,
      "byteOffset": 15084
    },
    {
      "type": "SCALAR",
      "componentType": 5126,
      "count": 7,
      "max": [
        2.0333333015441895
      ],
      "min": [
        0.03333333507180214
      ],
      "bufferView": 0,
      "byteOffset": 15468
    },
    {
      "type": "VEC4",
      "componentType": 5126,
      "count": 7,
      "bufferView": 0,
      "byteOffset": 15496
    },
    {
      "type": "SCALAR",
      "componentType": 5126,
      "count": 4,
      "max": [
        2.0333333015441895
      ],
      "min": [
        0.03333333507180214
      ],
      "bufferView": 0,
      "byteOffset": 15608
    },
    {
      "type": "VEC3",
      "componentType": 5126,
      "count": 4,
      "bufferView": 0,
      "byteOffset": 15624
    },
    {
      "type": "VEC4",
      "componentType": 5126,
      "count": 2,
      "bufferView": 0,
      "byteOffset": 15672
    },
    {
      "type": "VEC4",
      "componentType": 5126,
      "count": 2,
      "bufferView": 0,
      "byteOffset": 15704
    },
    {
      "type": "SCALAR",
      "componentType": 5123,
      "count": 29892,
      "bufferView": 1,
      "byteOffset": 0
    },
    {
      "type": "VEC4",
      "componentType": 5121,
      "count": 8354,
      "bufferView": 2,
      "byteOffset": 0
    },
    {
      "type": "VEC3",
      "componentType": 5122,
      "count": 8354,
      "max": [
        22922,
        32767,
        11537
      ],
      "min": [
        -22922,
        -32767,
        -11537
      ],
      "normalized": true,
      "bufferView": 2,
      "byteOffset": 4
    },
    {
      "type": "VEC3",
      "componentType": 5122,
      "count": 8354,
      "normalized": true,
      "bufferView": 2,
      "byteOffset": 12
    },
    {
      "type": "VEC2",
      "componentType": 5123,
      "count": 8354,
      "normalized": true,
      "bufferView": 2,
      "byteOffset": 20
    },
    {
      "type": "VEC4",
      "componentType": 5121,
      "count": 8354,
      "normalized": true,
      "bufferView": 2,
      "byteOffset": 24
    },
    {
      "type": "MAT4",
      "componentType": 5126,
      "count": 24,
      "bufferView": 3,
      "byteOffset": 0
    }
  ],
  "bufferViews": [
    {
      "buffer": 0,
      "byteOffset": 0,
      "byteLength": 15736
    },
    {
      "buffer": 0,
      "byteOffset": 15736,
      "byteLength": 59784,
      "target": 34963
    },
    {
      "buffer": 0,
      "byteOffset": 75520,
      "byteLength": 233912,
      "byteStride": 28,
      "target": 34962
    },
    {
      "buffer": 0,
      "byteOffset": 309432,
      "byteLength": 1536
    }
  ],
  "samplers": [
    {
      "magFilter": 9729,
      "minFilter": 9987,
      "wrapS": 10497,
      "wrapT": 10497
    }
  ],
  "textures": [
    {
      "sampler": 0,
      "extensions": {
        "EXT_texture_webp": {
          "source": 0
        }
      }
    }
  ],
  "images": [
    {
      "name": "texture_0",
      "mimeType": "image/webp",
      "uri": "baseColor.webp"
    }
  ],
  "buffers": [
    {
      "uri": "model.bin",
      "byteLength": 310968
    }
  ],
  "materials": [
    {
      "name": "Material_1",
      "doubleSided": true,
      "pbrMetallicRoughness": {
        "roughnessFactor": 0.4100847542285919,
        "baseColorTexture": {
          "index": 0
        }
      },
      "emissiveFactor": [
        1,
        1,
        1
      ],
      "emissiveTexture": {
        "index": 0
      },
      "extensions": {
        "KHR_materials_ior": {
          "ior": 1.4500000476837158
        },
        "KHR_materials_specular": {
          "specularColorFactor": [
            2,
            2,
            2
          ]
        }
      }
    }
  ],
  "meshes": [
    {
      "name": "char1",
      "primitives": [
        {
          "attributes": {
            "JOINTS_0": 98,
            "POSITION": 99,
            "NORMAL": 100,
            "TEXCOORD_0": 101,
            "WEIGHTS_0": 102
          },
          "mode": 4,
          "material": 0,
          "indices": 97
        }
      ]
    }
  ],
  "nodes": [
    {
      "name": "LeftToeBase",
      "translation": [
        9.55536961555481e-7,
        8.500033378601074,
        3.203749656677246e-7
      ],
      "rotation": [
        -0.0034697188530117273,
        -0.0010895320447161794,
        -0.0000033910857837327057,
        0.9999933838844299
      ]
    },
    {
      "name": "LeftFoot",
      "translation": [
        9.834766387939453e-7,
        5.750721454620361,
        -8.344650268554688e-7
      ],
      "rotation": [
        -0.7983372807502747,
        -0.25153884291648865,
        -0.20800629258155823,
        0.5060821771621704
      ],
      "children": [
        0
      ]
    },
    {
      "name": "LeftLeg",
      "translation": [
        0.000002384185791015625,
        15.205772399902344,
        1.1920928955078125e-7
      ],
      "rotation": [
        0.12527425587177277,
        0.4235040545463562,
        0.28088340163230896,
        0.8520887494087219
      ],
      "children": [
        1
      ]
    },
    {
      "name": "LeftUpLeg",
      "translation": [
        14.880016326904297,
        -3.2612533569335938,
        -4.808629989624023
      ],
      "rotation": [
        -0.8338769674301147,
        -0.34512725472450256,
        0.2833178639411926,
        0.3244493007659912
      ],
      "children": [
        2
      ]
    },
    {
      "name": "RightToeBase",
      "translation": [
        -6.034970283508301e-7,
        8.735892295837402,
        4.76837158203125e-7
      ],
      "rotation": [
        -0.029727868735790253,
        0.009040841832756996,
        0.0002684849314391613,
        0.9995171427726746
      ]
    },
    {
      "name": "RightFoot",
      "translation": [
        0.0000019073486328125,
        5.830889701843262,
        -3.5762786865234375e-7
      ],
      "rotation": [
        -0.7933206558227539,
        0.24753545224666595,
        0.20000851154327393,
        0.5190040469169617
      ],
      "children": [
        4
      ]
    },
    {
      "name": "RightLeg",
      "translation": [
        -4.76837158203125e-7,
        15.631013870239258,
        -8.344650268554688e-7
      ],
      "rotation": [
        0.14371609687805176,
        -0.44712114334106445,
        -0.2879422903060913,
        0.8345763087272644
      ],
      "children": [
        5
      ]
    },
    {
      "name": "RightUpLeg",
      "translation": [
        -16.49068260192871,
        -0.5007185935974121,
        -0.15644168853759766
      ],
      "rotation": [
        -0.8239589333534241,
        0.4789538085460663,
        -0.1960298866033554,
        0.23079688847064972
      ],
      "children": [
        6
      ]
    },
    {
      "name": "LeftHand",
      "translation": [
        -2.384185791015625e-7,
        14.46129035949707,
        -0.0000021457672119140625
      ],
      "rotation": [
        0.13323190808296204,
        0.16690826416015625,
        0.12830108404159546,
        0.9684677124023438
      ]
    },
    {
      "name": "LeftForeArm",
      "translation": [
        -0.0000019073486328125,
        15.28468132019043,
        0.000006198883056640625
      ],
      "rotation": [
        -0.19135388731956482,
        -0.20044390857219696,
        -0.04037071391940117,
        0.9599875807762146
      ],
      "children": [
        8
      ]
    },
    {
      "name": "LeftArm",
      "translation": [
        -1.4409033610718325e-7,
        21.678205490112305,
        7.719782502135786e-8
      ],
      "rotation": [
        0.31308531761169434,
        0.3298078179359436,
        0.06873981654644012,
        0.8879635334014893
      ],
      "children": [
        9
      ]
    },
    {
      "name": "LeftShoulder",
      "translation": [
        5.454885005950928,
        3.0815227031707764,
        -0.5574752688407898
      ],
      "rotation": [
        0.5375108122825623,
        0.5662209391593933,
        -0.4624777138233185,
        0.4202266335487366
      ],
      "children": [
        10
      ]
    },
    {
      "name": "RightHand",
      "translation": [
        2.384185791015625e-7,
        14.457331657409668,
        2.384185791015625e-7
      ],
      "rotation": [
        0.13839039206504822,
        -0.1636163741350174,
        -0.1060071736574173,
        0.9709996581077576
      ]
    },
    {
      "name": "RightForeArm",
      "translation": [
        -0.000002384185791015625,
        15.296433448791504,
        0.00000476837158203125
      ],
      "rotation": [
        -0.19574788212776184,
        0.19958671927452087,
        0.03163249045610428,
        0.9596078991889954
      ],
      "children": [
        12
      ]
    },
    {
      "name": "RightArm",
      "translation": [
        -9.877703632810153e-8,
        22.140392303466797,
        -0.000008001052265171893
      ],
      "rotation": [
        0.31393325328826904,
        -0.33063405752182007,
        -0.06596879661083221,
        0.8875669836997986
      ],
      "children": [
        13
      ]
    },
    {
      "name": "RightShoulder",
      "translation": [
        -5.4812750816345215,
        3.272197961807251,
        -0.34361642599105835
      ],
      "rotation": [
        0.5375683307647705,
        -0.566166341304779,
        0.4436572194099426,
        0.4400503635406494
      ],
      "children": [
        14
      ]
    },
    {
      "name": "head_end",
      "translation": [
        -0.3873932361602783,
        206.13572692871094,
        -25.70360565185547
      ],
      "rotation": [
        -0.06198633089661598,
        -7.348299302378791e-9,
        0.0009342303383164108,
        0.9980765581130981
      ]
    },
    {
      "name": "headfront",
      "translation": [
        0.3873921036720276,
        -1.7266807556152344,
        25.703624725341797
      ],
      "rotation": [
        0.7303343415260315,
        -2.80544067976507e-8,
        -0.011007266119122505,
        0.6830011606216431
      ]
    },
    {
      "name": "Head",
      "translation": [
        -4.4659543618763564e-8,
        12.038125038146973,
        -4.740506938105682e-7
      ],
      "rotation": [
        0.00548121053725481,
        0.0003766773734241724,
        -0.0004348752263467759,
        0.9999848008155823
      ],
      "children": [
        16,
        17
      ]
    },
    {
      "name": "neck",
      "translation": [
        0.0263901948928833,
        6.252767086029053,
        0.9010896682739258
      ],
      "rotation": [
        0.07150313258171082,
        0.0009693953325040638,
        -0.0020245532505214214,
        0.9974378347396851
      ],
      "children": [
        18
      ]
    },
    {
      "name": "Spine",
      "translation": [
        -7.450580596923828e-9,
        12.238788604736328,
        -0.0000030114315450191498
      ],
      "rotation": [
        -0.06496239453554153,
        -0.00551897007972002,
        0.005550888366997242,
        0.9978570342063904
      ],
      "children": [
        11,
        15,
        19
      ]
    },
    {
      "name": "Spine01",
      "translation": [
        4.917383193969727e-7,
        12.238783836364746,
        -0.0000027492642402648926
      ],
      "children": [
        20
      ]
    },
    {
      "name": "Spine02",
      "translation": [
        1.61066472530365,
        11.069855690002441,
        4.965066432952881
      ],
      "rotation": [
        0.21152299642562866,
        0.058302152901887894,
        -0.054891813546419144,
        0.9740871787071228
      ],
      "children": [
        21
      ]
    },
    {
      "name": "Hips",
      "translation": [
        0.5772504210472107,
        26.141727447509766,
        16.636436462402344
      ],
      "rotation": [
        -0.25561070442199707,
        -0.06063055247068405,
        0.06063056364655495,
        0.9629698991775513
      ],
      "children": [
        3,
        7,
        22
      ]
    },
    {
      "name": "char1",
      "scale": [
        0.009999999776482582,
        0.009999999776482582,
        0.009999999776482582
      ],
      "mesh": 0,
      "skin": 0
    },
    {
      "name": "Armature",
      "scale": [
        0.009999999776482582,
        0.009999999776482582,
        0.009999999776482582
      ],
      "children": [
        23
      ]
    }
  ],
  "skins": [
    {
      "name": "Armature",
      "inverseBindMatrices": 103,
      "joints": [
        23,
        3,
        2,
        1,
        0,
        7,
        6,
        5,
        4,
        22,
        21,
        20,
        11,
        10,
        9,
        8,
        15,
        14,
        13,
        12,
        19,
        18,
        16,
        17
      ]
    }
  ],
  "animations": [
    {
      "name": "Armature|Idle_9|baselayer",
      "samplers": [
        {
          "input": 0,
          "output": 1,
          "interpolation": "LINEAR"
        },
        {
          "input": 49,
          "output": 50,
          "interpolation": "LINEAR"
        },
        {
          "input": 2,
          "output": 3,
          "interpolation": "STEP"
        },
        {
          "input": 2,
          "output": 4,
          "interpolation": "LINEAR"
        },
        {
          "input": 51,
          "output": 52,
          "interpolation": "LINEAR"
        },
        {
          "input": 2,
          "output": 5,
          "interpolation": "STEP"
        },
        {
          "input": 2,
          "output": 6,
          "interpolation": "LINEAR"
        },
        {
          "input": 53,
          "output": 54,
          "interpolation": "LINEAR"
        },
        {
          "input": 2,
          "output": 7,
          "interpolation": "LINEAR"
        },
        {
          "input": 2,
          "output": 8,
          "interpolation": "LINEAR"
        },
        {
          "input": 55,
          "output": 56,
          "interpolation": "LINEAR"
        },
        {
          "input": 2,
          "output": 9,
          "interpolation": "LINEAR"
        },
        {
          "input": 2,
          "output": 10,
          "interpolation": "LINEAR"
        },
        {
          "input": 57,
          "output": 58,
          "interpolation": "LINEAR"
        },
        {
          "input": 2,
          "output": 11,
          "interpolation": "LINEAR"
        },
        {
          "input": 2,
          "output": 12,
          "interpolation": "LINEAR"
        },
        {
          "input": 59,
          "output": 60,
          "interpolation": "LINEAR"
        },
        {
          "input": 2,
          "output": 13,
          "interpolation": "STEP"
        },
        {
          "input": 2,
          "output": 14,
          "interpolation": "LINEAR"
        },
        {
          "input": 61,
          "output": 62,
          "interpolation": "LINEAR"
        },
        {
          "input": 2,
          "output": 15,
          "interpolation": "LINEAR"
        },
        {
          "input": 2,
          "output": 16,
          "interpolation": "LINEAR"
        },
        {
          "input": 63,
          "output": 64,
          "interpolation": "LINEAR"
        },
        {
          "input": 2,
          "output": 17,
          "interpolation": "LINEAR"
        },
        {
          "input": 2,
          "output": 18,
          "interpolation": "LINEAR"
        },
        {
          "input": 65,
          "output": 66,
          "interpolation": "LINEAR"
        },
        {
          "input": 2,
          "output": 19,
          "interpolation": "STEP"
        },
        {
          "input": 2,
          "output": 20,
          "interpolation": "LINEAR"
        },
        {
          "input": 67,
          "output": 68,
          "interpolation": "LINEAR"
        },
        {
          "input": 2,
          "output": 21,
          "interpolation": "LINEAR"
        },
        {
          "input": 2,
          "output": 22,
          "interpolation": "LINEAR"
        },
        {
          "input": 69,
          "output": 70,
          "interpolation": "LINEAR"
        },
        {
          "input": 2,
          "output": 23,
          "interpolation": "LINEAR"
        },
        {
          "input": 2,
          "output": 24,
          "interpolation": "LINEAR"
        },
        {
          "input": 71,
          "output": 72,
          "interpolation": "LINEAR"
        },
        {
          "input": 2,
          "output": 25,
          "interpolation": "STEP"
        },
        {
          "input": 2,
          "output": 26,
          "interpolation": "LINEAR"
        },
        {
          "input": 73,
          "output": 74,
          "interpolation": "LINEAR"
        },
        {
          "input": 2,
          "output": 27,
          "interpolation": "LINEAR"
        },
        {
          "input": 2,
          "output": 28,
          "interpolation": "LINEAR"
        },
        {
          "input": 75,
          "output": 76,
          "interpolation": "LINEAR"
        },
        {
          "input": 2,
          "output": 29,
          "interpolation": "LINEAR"
        },
        {
          "input": 2,
          "output": 30,
          "interpolation": "LINEAR"
        },
        {
          "input": 77,
          "output": 78,
          "interpolation": "LINEAR"
        },
        {
          "input": 2,
          "output": 31,
          "interpolation": "LINEAR"
        },
        {
          "input": 2,
          "output": 32,
          "interpolation": "LINEAR"
        },
        {
          "input": 79,
          "output": 80,
          "interpolation": "LINEAR"
        },
        {
          "input": 2,
          "output": 33,
          "interpolation": "STEP"
        },
        {
          "input": 2,
          "output": 34,
          "interpolation": "LINEAR"
        },
        {
          "input": 81,
          "output": 82,
          "interpolation": "LINEAR"
        },
        {
          "input": 2,
          "output": 35,
          "interpolation": "LINEAR"
        },
        {
          "input": 2,
          "output": 36,
          "interpolation": "LINEAR"
        },
        {
          "input": 83,
          "output": 84,
          "interpolation": "LINEAR"
        },
        {
          "input": 2,
          "output": 37,
          "interpolation": "LINEAR"
        },
        {
          "input": 2,
          "output": 38,
          "interpolation": "LINEAR"
        },
        {
          "input": 85,
          "output": 86,
          "interpolation": "LINEAR"
        },
        {
          "input": 2,
          "output": 39,
          "interpolation": "LINEAR"
        },
        {
          "input": 2,
          "output": 40,
          "interpolation": "LINEAR"
        },
        {
          "input": 87,
          "output": 88,
          "interpolation": "LINEAR"
        },
        {
          "input": 2,
          "output": 41,
          "interpolation": "STEP"
        },
        {
          "input": 2,
          "output": 42,
          "interpolation": "LINEAR"
        },
        {
          "input": 89,
          "output": 90,
          "interpolation": "LINEAR"
        },
        {
          "input": 2,
          "output": 43,
          "interpolation": "LINEAR"
        },
        {
          "input": 2,
          "output": 44,
          "interpolation": "LINEAR"
        },
        {
          "input": 91,
          "output": 92,
          "interpolation": "LINEAR"
        },
        {
          "input": 2,
          "output": 45,
          "interpolation": "STEP"
        },
        {
          "input": 93,
          "output": 94,
          "interpolation": "LINEAR"
        },
        {
          "input": 2,
          "output": 95,
          "interpolation": "LINEAR"
        },
        {
          "input": 2,
          "output": 46,
          "interpolation": "LINEAR"
        },
        {
          "input": 2,
          "output": 47,
          "interpolation": "LINEAR"
        },
        {
          "input": 2,
          "output": 96,
          "interpolation": "LINEAR"
        },
        {
          "input": 2,
          "output": 48,
          "interpolation": "LINEAR"
        }
      ],
      "channels": [
        {
          "sampler": 0,
          "target": {
            "node": 23,
            "path": "translation"
          }
        },
        {
          "sampler": 1,
          "target": {
            "node": 23,
            "path": "rotation"
          }
        },
        {
          "sampler": 2,
          "target": {
            "node": 23,
            "path": "scale"
          }
        },
        {
          "sampler": 3,
          "target": {
            "node": 3,
            "path": "translation"
          }
        },
        {
          "sampler": 4,
          "target": {
            "node": 3,
            "path": "rotation"
          }
        },
        {
          "sampler": 5,
          "target": {
            "node": 3,
            "path": "scale"
          }
        },
        {
          "sampler": 6,
          "target": {
            "node": 2,
            "path": "translation"
          }
        },
        {
          "sampler": 7,
          "target": {
            "node": 2,
            "path": "rotation"
          }
        },
        {
          "sampler": 8,
          "target": {
            "node": 2,
            "path": "scale"
          }
        },
        {
          "sampler": 9,
          "target": {
            "node": 1,
            "path": "translation"
          }
        },
        {
          "sampler": 10,
          "target": {
            "node": 1,
            "path": "rotation"
          }
        },
        {
          "sampler": 11,
          "target": {
            "node": 1,
            "path": "scale"
          }
        },
        {
          "sampler": 12,
          "target": {
            "node": 0,
            "path": "translation"
          }
        },
        {
          "sampler": 13,
          "target": {
            "node": 0,
            "path": "rotation"
          }
        },
        {
          "sampler": 14,
          "target": {
            "node": 0,
            "path": "scale"
          }
        },
        {
          "sampler": 15,
          "target": {
            "node": 7,
            "path": "translation"
          }
        },
        {
          "sampler": 16,
          "target": {
            "node": 7,
            "path": "rotation"
          }
        },
        {
          "sampler": 17,
          "target": {
            "node": 7,
            "path": "scale"
          }
        },
        {
          "sampler": 18,
          "target": {
            "node": 6,
            "path": "translation"
          }
        },
        {
          "sampler": 19,
          "target": {
            "node": 6,
            "path": "rotation"
          }
        },
        {
          "sampler": 20,
          "target": {
            "node": 6,
            "path": "scale"
          }
        },
        {
          "sampler": 21,
          "target": {
            "node": 5,
            "path": "translation"
          }
        },
        {
          "sampler": 22,
          "target": {
            "node": 5,
            "path": "rotation"
          }
        },
        {
          "sampler": 23,
          "target": {
            "node": 5,
            "path": "scale"
          }
        },
        {
          "sampler": 24,
          "target": {
            "node": 4,
            "path": "translation"
          }
        },
        {
          "sampler": 25,
          "target": {
            "node": 4,
            "path": "rotation"
          }
        },
        {
          "sampler": 26,
          "target": {
            "node": 4,
            "path": "scale"
          }
        },
        {
          "sampler": 27,
          "target": {
            "node": 22,
            "path": "translation"
          }
        },
        {
          "sampler": 28,
          "target": {
            "node": 22,
            "path": "rotation"
          }
        },
        {
          "sampler": 29,
          "target": {
            "node": 22,
            "path": "scale"
          }
        },
        {
          "sampler": 30,
          "target": {
            "node": 21,
            "path": "translation"
          }
        },
        {
          "sampler": 31,
          "target": {
            "node": 21,
            "path": "rotation"
          }
        },
        {
          "sampler": 32,
          "target": {
            "node": 21,
            "path": "scale"
          }
        },
        {
          "sampler": 33,
          "target": {
            "node": 20,
            "path": "translation"
          }
        },
        {
          "sampler": 34,
          "target": {
            "node": 20,
            "path": "rotation"
          }
        },
        {
          "sampler": 35,
          "target": {
            "node": 20,
            "path": "scale"
          }
        },
        {
          "sampler": 36,
          "target": {
            "node": 11,
            "path": "translation"
          }
        },
        {
          "sampler": 37,
          "target": {
            "node": 11,
            "path": "rotation"
          }
        },
        {
          "sampler": 38,
          "target": {
            "node": 11,
            "path": "scale"
          }
        },
        {
          "sampler": 39,
          "target": {
            "node": 10,
            "path": "translation"
          }
        },
        {
          "sampler": 40,
          "target": {
            "node": 10,
            "path": "rotation"
          }
        },
        {
          "sampler": 41,
          "target": {
            "node": 10,
            "path": "scale"
          }
        },
        {
          "sampler": 42,
          "target": {
            "node": 9,
            "path": "translation"
          }
        },
        {
          "sampler": 43,
          "target": {
            "node": 9,
            "path": "rotation"
          }
        },
        {
          "sampler": 44,
          "target": {
            "node": 9,
            "path": "scale"
          }
        },
        {
          "sampler": 45,
          "target": {
            "node": 8,
            "path": "translation"
          }
        },
        {
          "sampler": 46,
          "target": {
            "node": 8,
            "path": "rotation"
          }
        },
        {
          "sampler": 47,
          "target": {
            "node": 8,
            "path": "scale"
          }
        },
        {
          "sampler": 48,
          "target": {
            "node": 15,
            "path": "translation"
          }
        },
        {
          "sampler": 49,
          "target": {
            "node": 15,
            "path": "rotation"
          }
        },
        {
          "sampler": 50,
          "target": {
            "node": 15,
            "path": "scale"
          }
        },
        {
          "sampler": 51,
          "target": {
            "node": 14,
            "path": "translation"
          }
        },
        {
          "sampler": 52,
          "target": {
            "node": 14,
            "path": "rotation"
          }
        },
        {
          "sampler": 53,
          "target": {
            "node": 14,
            "path": "scale"
          }
        },
        {
          "sampler": 54,
          "target": {
            "node": 13,
            "path": "translation"
          }
        },
        {
          "sampler": 55,
          "target": {
            "node": 13,
            "path": "rotation"
          }
        },
        {
          "sampler": 56,
          "target": {
            "node": 13,
            "path": "scale"
          }
        },
        {
          "sampler": 57,
          "target": {
            "node": 12,
            "path": "translation"
          }
        },
        {
          "sampler": 58,
          "target": {
            "node": 12,
            "path": "rotation"
          }
        },
        {
          "sampler": 59,
          "target": {
            "node": 12,
            "path": "scale"
          }
        },
        {
          "sampler": 60,
          "target": {
            "node": 19,
            "path": "translation"
          }
        },
        {
          "sampler": 61,
          "target": {
            "node": 19,
            "path": "rotation"
          }
        },
        {
          "sampler": 62,
          "target": {
            "node": 19,
            "path": "scale"
          }
        },
        {
          "sampler": 63,
          "target": {
            "node": 18,
            "path": "translation"
          }
        },
        {
          "sampler": 64,
          "target": {
            "node": 18,
            "path": "rotation"
          }
        },
        {
          "sampler": 65,
          "target": {
            "node": 18,
            "path": "scale"
          }
        },
        {
          "sampler": 66,
          "target": {
            "node": 16,
            "path": "translation"
          }
        },
        {
          "sampler": 67,
          "target": {
            "node": 16,
            "path": "rotation"
          }
        },
        {
          "sampler": 68,
          "target": {
            "node": 16,
            "path": "scale"
          }
        },
        {
          "sampler": 69,
          "target": {
            "node": 17,
            "path": "translation"
          }
        },
        {
          "sampler": 70,
          "target": {
            "node": 17,
            "path": "rotation"
          }
        },
        {
          "sampler": 71,
          "target": {
            "node": 17,
            "path": "scale"
          }
        }
      ]
    }
  ],
  "scenes": [
    {
      "name": "Scene",
      "nodes": [
        25,
        24
      ]
    }
  ],
  "scene": 0,
  "extensionsUsed": [
    "EXT_texture_webp",
    "KHR_materials_ior",
    "KHR_materials_specular",
    "KHR_mesh_quantization"
  ],
  "extensionsRequired": [
    "EXT_texture_webp",
    "KHR_mesh_quantization"
  ]
}