{
  "asset": {
    "generator": "glTF-Transform v4.3.0",
    "version": "2.0"
  },
  "accessors": [
    {
      "type": "SCALAR",
      "componentType": 5126,
      "count": 32,
      "max": [
        1.0666667222976685
      ],
      "min": [
        0.03333333507180214
      ],
      "bufferView": 0,
      "byteOffset": 0
    },
    {
      "type": "VEC3",
      "componentType": 5126,
      "count": 32,
      "bufferView": 0,
      "byteOffset": 128
    },
    {
      "type": "VEC4",
      "componentType": 5126,
      "count": 32,
      "bufferView": 0,
      "byteOffset": 512
    },
    {
      "type": "SCALAR",
      "componentType": 5126,
      "count": 2,
      "max": [
        1.0666667222976685
      ],
      "min": [
        0.03333333507180214
      ],
      "bufferView": 0,
      "byteOffset": 1024
    },
    {
      "type": "VEC3",
      "componentType": 5126,
      "count": 2,
      "bufferView": 0,
      "byteOffset": 1032
    },
    {
      "type": "VEC3",
      "componentType": 5126,
      "count": 2,
      "bufferView": 0,
      "byteOffset": 1056
    },
    {
      "type": "VEC4",
      "componentType": 5126,
      "count": 32,
      "bufferView": 0,
      "byteOffset": 1080
    },
    {
      "type": "VEC3",
      "componentType": 5126,
      "count": 2,
      "bufferView": 0,
      "byteOffset": 1592
    },
    {
      "type": "VEC3",
      "componentType": 5126,
      "count": 2,
      "bufferView": 0,
      "byteOffset": 1616
    },
    {
      "type": "VEC4",
      "componentType": 5126,
      "count": 32,
      "bufferView": 0,
      "byteOffset": 1640
    },
    {
      "type": "VEC3",
      "componentType": 5126,
      "count": 2,
      "bufferView": 0,
      "byteOffset": 2152
    },
    {
      "type": "VEC3",
      "componentType": 5126,
      "count": 2,
      "bufferView": 0,
      "byteOffset": 2176
    },
    {
      "type": "VEC4",
      "componentType": 5126,
      "count": 32,
      "bufferView": 0,
      "byteOffset": 2200
    },
    {
      "type": "VEC3",
      "componentType": 5126,
      "count": 2,
      "bufferView": 0,
      "byteOffset": 2712
    },
    {
      "type": "VEC3",
      "componentType": 5126,
      "count": 2,
      "bufferView": 0,
      "byteOffset": 2736
    },
    {
      "type": "VEC4",
      "componentType": 5126,
      "count": 32,
      "bufferView": 0,
      "byteOffset": 2760
    },
    {
      "type": "VEC3",
      "componentType": 5126,
      "count": 2,
      "bufferView": 0,
      "byteOffset": 3272
    },
    {
      "type": "VEC3",
      "componentType": 5126,
      "count": 2,
      "bufferView": 0,
      "byteOffset": 3296
    },
    {
      "type": "VEC4",
      "componentType": 5126,
      "count": 32,
      "bufferView": 0,
      "byteOffset": 3320
    },
    {
      "type": "VEC3",
      "componentType": 5126,
      "count": 2,
      "bufferView": 0,
      "byteOffset": 3832
    },
    {
      "type": "VEC3",
      "componentType": 5126,
      "count": 2,
      "bufferView": 0,
      "byteOffset": 3856
    },
    {
      "type": "VEC4",
      "componentType": 5126,
      "count": 32,
      "bufferView": 0,
      "byteOffset": 3880
    },
    {
      "type": "VEC3",
      "componentType": 5126,
      "count": 2,
      "bufferView": 0,
      "byteOffset": 4392
    },
    {
      "type": "VEC3",
      "componentType": 5126,
      "count": 2,
      "bufferView": 0,
      "byteOffset": 4416
    },
    {
      "type": "VEC4",
      "componentType": 5126,
      "count": 32,
      "bufferView": 0,
      "byteOffset": 4440
    },
    {
      "type": "VEC3",
      "componentType": 5126,
      "count": 2,
      "bufferView": 0,
      "byteOffset": 4952
    },
    {
      "type": "VEC3",
      "componentType": 5126,
      "count": 2,
      "bufferView": 0,
      "byteOffset": 4976
    },
    {
      "type": "VEC3",
      "componentType": 5126,
      "count": 2,
      "bufferView": 0,
      "byteOffset": 5000
    },
    {
      "type": "VEC3",
      "componentType": 5126,
      "count": 2,
      "bufferView": 0,
      "byteOffset": 5024
    },
    {
      "type": "VEC4",
      "componentType": 5126,
      "count": 32,
      "bufferView": 0,
      "byteOffset": 5048
    },
    {
      "type": "VEC3",
      "componentType": 5126,
      "count": 2,
      "bufferView": 0,
      "byteOffset": 5560
    },
    {
      "type": "VEC3",
      "componentType": 5126,
      "count": 2,
      "bufferView": 0,
      "byteOffset": 5584
    },
    {
      "type": "VEC4",
      "componentType": 5126,
      "count": 32,
      "bufferView": 0,
      "byteOffset": 5608
    },
    {
      "type": "VEC3",
      "componentType": 5126,
      "count": 2,
      "bufferView": 0,
      "byteOffset": 6120
    },
    {
      "type": "VEC3",
      "componentType": 5126,
      "count": 2,
      "bufferView": 0,
      "byteOffset": 6144
    },
    {
      "type": "VEC4",
      "componentType": 5126,
      "count": 32,
      "bufferView": 0,
      "byteOffset": 6168
    },
    {
      "type": "VEC3",
      "componentType": 5126,
      "count": 2,
      "bufferView": 0,
      "byteOffset": 6680
    },
    {
      "type": "VEC3",
      "componentType": 5126,
      "count": 2,
      "bufferView": 0,
      "byteOffset": 6704
    },
    {
      "type": "VEC4",
      "componentType": 5126,
      "count": 32,
      "bufferView": 0,
      "byteOffset": 6728
    },
    {
      "type": "VEC3",
      "componentType": 5126,
      "count": 2,
      "bufferView": 0,
      "byteOffset": 7240
    },
    {
      "type": "VEC3",
      "componentType": 5126,
      "count": 2,
      "bufferView": 0,
      "byteOffset": 7264
    },
    {
      "type": "VEC4",
      "componentType": 5126,
      "count": 32,
      "bufferView": 0,
      "byteOffset": 7288
    },
    {
      "type": "VEC3",
      "componentType": 5126,
      "count": 2,
      "bufferView": 0,
      "byteOffset": 7800
    },
    {
      "type": "VEC3",
      "componentType": 5126,
      "count": 2,
      "bufferView": 0,
      "byteOffset": 7824
    },
    {
      "type": "VEC4",
      "componentType": 5126,
      "count": 32,
      "bufferView": 0,
      "byteOffset": 7848
    },
    {
      "type": "VEC3",
      "componentType": 5126,
      "count": 2,
      "bufferView": 0,
      "byteOffset": 8360
    },
    {
      "type": "VEC3",
      "componentType": 5126,
      "count": 2,
      "bufferView": 0,
      "byteOffset": 8384
    },
    {
      "type": "VEC4",
      "componentType": 5126,
      "count": 32,
      "bufferView": 0,
      "byteOffset": 8408
    },
    {
      "type": "VEC3",
      "componentType": 5126,
      "count": 2,
      "bufferView": 0,
      "byteOffset": 8920
    },
    {
      "type": "VEC3",
      "componentType": 5126,
      "count": 2,
      "bufferView": 0,
      "byteOffset": 8944
    },
    {
      "type": "VEC4",
      "componentType": 5126,
      "count": 32,
      "bufferView": 0,
      "byteOffset": 8968
    },
    {
      "type": "VEC3",
      "componentType": 5126,
      "count": 2,
      "bufferView": 0,
      "byteOffset": 9480
    },
    {
      "type": "VEC3",
      "componentType": 5126,
      "count": 2,
      "bufferView": 0,
      "byteOffset": 9504
    },
    {
      "type": "VEC4",
      "componentType": 5126,
      "count": 32,
      "bufferView": 0,
      "byteOffset": 9528
    },
    {
      "type": "VEC3",
      "componentType": 5126,
      "count": 2,
      "bufferView": 0,
      "byteOffset": 10040
    },
    {
      "type": "VEC3",
      "componentType": 5126,
      "count": 2,
      "bufferView": 0,
      "byteOffset": 10064
    },
    {
      "type": "VEC4",
      "componentType": 5126,
      "count": 32,
      "bufferView": 0,
      "byteOffset": 10088
    },
    {
      "type": "VEC3",
      "componentType": 5126,
      "count": 2,
      "bufferView": 0,
      "byteOffset": 10600
    },
    {
      "type": "VEC3",
      "componentType": 5126,
      "count": 2,
      "bufferView": 0,
      "byteOffset": 10624
    },
    {
      "type": "VEC4",
      "componentType": 5126,
      "count": 32,
      "bufferView": 0,
      "byteOffset": 10648
    },
    {
      "type": "VEC3",
      "componentType": 5126,
      "count": 2,
      "bufferView": 0,
      "byteOffset": 11160
    },
    {
      "type": "VEC3",
      "componentType": 5126,
      "count": 2,
      "bufferView": 0,
      "byteOffset": 11184
    },
    {
      "type": "VEC4",
      "componentType": 5126,
      "count": 32,
      "bufferView": 0,
      "byteOffset": 11208
    },
    {
      "type": "VEC3",
      "componentType": 5126,
      "count": 2,
      "bufferView": 0,
      "byteOffset": 11720
    },
    {
      "type": "VEC3",
      "componentType": 5126,
      "count": 2,
      "bufferView": 0,
      "byteOffset": 11744
    },
    {
      "type": "VEC4",
      "componentType": 5126,
      "count": 32,
      "bufferView": 0,
      "byteOffset": 11768
    },
    {
      "type": "VEC3",
      "componentType": 5126,
      "count": 2,
      "bufferView": 0,
      "byteOffset": 12280
    },
    {
      "type": "VEC3",
      "componentType": 5126,
      "count": 2,
      "bufferView": 0,
      "byteOffset": 12304
    },
    {
      "type": "VEC3",
      "componentType": 5126,
      "count": 2,
      "bufferView": 0,
      "byteOffset": 12328
    },
    {
      "type": "VEC3",
      "componentType": 5126,
      "count": 2,
      "bufferView": 0,
      "byteOffset": 12352
    },
    {
      "type": "VEC4",
      "componentType": 5126,
      "count": 2,
      "bufferView": 0,
      "byteOffset": 12376
    },
    {
      "type": "VEC3",
      "componentType": 5126,
      "count": 2,
      "bufferView": 0,
      "byteOffset": 12408
    },
    {
      "type": "SCALAR",
      "componentType": 5126,
      "count": 31,
      "max": [
        1.0666667222976685
      ],
      "min": [
        0.03333333507180214
      ],
      "bufferView": 0,
      "byteOffset": 12432
    },
    {
      "type": "VEC4",
      "componentType": 5126,
      "count": 31,
      "bufferView": 0,
      "byteOffset": 12556
    },
    {
      "type": "SCALAR",
      "componentType": 5126,
      "count": 30,
      "max": [
        1.0666667222976685
      ],
      "min": [
        0.03333333507180214
      ],
      "bufferView": 0,
      "byteOffset": 13052
    },
    {
      "type": "VEC4",
      "componentType": 5126,
      "count": 30,
      "bufferView": 0,
      "byteOffset": 13172
    },
    {
      "type": "SCALAR",
      "componentType": 5125,
      "count": 509175,
      "bufferView": 1,
      "byteOffset": 0
    },
    {
      "type": "VEC4",
      "componentType": 5121,
      "count": 103329,
      "bufferView": 2,
      "byteOffset": 0
    },
    {
      "type": "VEC3",
      "componentType": 5122,
      "count": 103329,
      "max": [
        23458,
        32767,
        26611
      ],
      "min": [
        -23458,
        -32767,
        -26611
      ],
      "normalized": true,
      "bufferView": 2,
      "byteOffset": 4
    },
    {
      "type": "VEC3",
      "componentType": 5122,
      "count": 103329,
      "normalized": true,
      "bufferView": 2,
      "byteOffset": 12
    },
    {
      "type": "VEC2",
      "componentType": 5123,
      "count": 103329,
      "normalized": true,
      "bufferView": 2,
      "byteOffset": 20
    },
    {
      "type": "VEC4",
      "componentType": 5121,
      "count": 103329,
      "normalized": true,
      "bufferView": 2,
      "byteOffset": 24
    },
    {
      "type": "MAT4",
      "componentType": 5126,
      "count": 24,
      "bufferView": 3,
      "byteOffset": 0
    }
  ],
  "bufferViews": [
    {
      "buffer": 0,
      "byteOffset": 0,
      "byteLength": 13652
    },
    {
      "buffer": 0,
      "byteOffset": 13652,
      "byteLength": 2036700,
      "target": 34963
    },
    {
      "buffer": 0,
      "byteOffset": 2050352,
      "byteLength": 2893212,
      "byteStride": 28,
      "target": 34962
    },
    {
      "buffer": 0,
      "byteOffset": 4943564,
      "byteLength": 1536
    }
  ],
  "samplers": [
    {
      "magFilter": 9729,
      "minFilter": 9987,
      "wrapS": 10497,
      "wrapT": 10497
    }
  ],
  "textures": [
    {
      "sampler": 0,
      "extensions": {
        "EXT_texture_webp": {
          "source": 0
        }
      }
    }
  ],
  "images": [
    {
      "name": "texture_0",
      "mimeType": "image/webp",
      "uri": "baseColor.webp"
    }
  ],
  "buffers": [
    {
      "uri": "model.bin",
      "byteLength": 4945100
    }
  ],
  "materials": [
    {
      "name": "Material_1",
      "doubleSided": true,
      "pbrMetallicRoughness": {
        "baseColorTexture": {
          "index": 0
        }
      },
      "emissiveFactor": [
        1,
        1,
        1
      ],
      "emissiveTexture": {
        "index": 0
      },
      "extensions": {
        "KHR_materials_ior": {
          "ior": 1.4500000476837158
        },
        "KHR_materials_specular": {
          "specularColorFactor": [
            2,
            2,
            2
          ]
        }
      }
    }
  ],
  "meshes": [
    {
      "name": "char1",
      "primitives": [
        {
          "attributes": {
            "JOINTS_0": 77,
            "POSITION": 78,
            "NORMAL": 79,
            "TEXCOORD_0": 80,
            "WEIGHTS_0": 81
          },
          "mode": 4,
          "material": 0,
          "indices": 76
        }
      ]
    }
  ],
  "nodes": [
    {
      "name": "LeftToeBase",
      "translation": [
        2.384185791015625e-7,
        8.248923301696777,
        -0.000004649162292480469
      ],
      "rotation": [
        -0.5597589612007141,
        0.27016663551330566,
        0.199637770652771,
        0.7575121521949768
      ]
    },
    {
      "name": "LeftFoot",
      "translation": [
        4.76837158203125e-7,
        7.732155799865723,
        -0.000001430511474609375
      ],
      "rotation": [
        0.23012752830982208,
        0.16989567875862122,
        0.2655402421951294,
        0.9206873178482056
      ],
      "children": [
        0
      ]
    },
    {
      "name": "LeftLeg",
      "translation": [
        0,
        17.233999252319336,
        -0.00000476837158203125
      ],
      "rotation": [
        -0.03442707657814026,
        0.07023656368255615,
        0.1628040075302124,
        0.9835529923439026
      ],
      "children": [
        1
      ]
    },
    {
      "name": "LeftUpLeg",
      "translation": [
        10.598409652709961,
        -5.83179235458374,
        -0.45967918634414673
      ],
      "rotation": [
        0.8573146462440491,
        0.1442023366689682,
        -0.4039325714111328,
        0.2847028970718384
      ],
      "children": [
        2
      ]
    },
    {
      "name": "RightToeBase",
      "translation": [
        -0.0000036954879760742188,
        9.846623420715332,
        0.000002384185791015625
      ],
      "rotation": [
        -0.3887212872505188,
        0.14973588287830353,
        0.06418528407812119,
        0.9068379998207092
      ]
    },
    {
      "name": "RightFoot",
      "translation": [
        -0.000004887580871582031,
        7.662966728210449,
        0
      ],
      "rotation": [
        -0.2318352460861206,
        0.1858019083738327,
        0.23965883255004883,
        0.9242801070213318
      ],
      "children": [
        4
      ]
    },
    {
      "name": "RightLeg",
      "translation": [
        0.000002384185791015625,
        14.16380500793457,
        0.000003337860107421875
      ],
      "rotation": [
        0.041280701756477356,
        -0.20842371881008148,
        -0.2551436424255371,
        0.9432693719863892
      ],
      "children": [
        5
      ]
    },
    {
      "name": "RightUpLeg",
      "translation": [
        -14.737850189208984,
        1.0711944103240967,
        4.5383806228637695
      ],
      "rotation": [
        0.9199051260948181,
        -0.28867900371551514,
        0.08312380313873291,
        0.2520505487918854
      ],
      "children": [
        6
      ]
    },
    {
      "name": "LeftHand",
      "translation": [
        0.0000020265579223632812,
        23.493045806884766,
        0
      ],
      "rotation": [
        0.10827505588531494,
        0.4139171242713928,
        0.21149814128875732,
        0.8787592053413391
      ]
    },
    {
      "name": "LeftForeArm",
      "translation": [
        2.384185791015625e-7,
        20.868091583251953,
        0.000004649162292480469
      ],
      "rotation": [
        0.04312467947602272,
        0.09347141534090042,
        0.045113734900951385,
        0.9936639666557312
      ],
      "children": [
        8
      ]
    },
    {
      "name": "LeftArm",
      "translation": [
        0.0000021486339392140508,
        36.00811004638672,
        -0.000008183863428712357
      ],
      "rotation": [
        0.5648012161254883,
        0.6117734313011169,
        0.2187684327363968,
        0.5087957382202148
      ],
      "children": [
        9
      ]
    },
    {
      "name": "LeftShoulder",
      "translation": [
        8.571566581726074,
        10.325942039489746,
        -0.887183666229248
      ],
      "rotation": [
        0.5150380730628967,
        0.5578714609146118,
        -0.4537116289138794,
        0.4665416479110718
      ],
      "children": [
        10
      ]
    },
    {
      "name": "RightHand",
      "translation": [
        -0.0000016689300537109375,
        18.2884578704834,
        -0.0000016689300537109375
      ],
      "rotation": [
        0.4304380416870117,
        -0.1791648268699646,
        -0.021986888721585274,
        0.8843865990638733
      ]
    },
    {
      "name": "RightForeArm",
      "translation": [
        0.000014781951904296875,
        20.623929977416992,
        0.00000762939453125
      ],
      "rotation": [
        0.04047858342528343,
        -0.15517474710941315,
        -0.12942130863666534,
        0.9785358309745789
      ],
      "children": [
        12
      ]
    },
    {
      "name": "RightArm",
      "translation": [
        -0.0000014694287528982386,
        36.42361068725586,
        0.000009663189302955288
      ],
      "rotation": [
        0.44049081206321716,
        -0.4585571885108948,
        -0.16630561649799347,
        0.7536813616752625
      ],
      "children": [
        13
      ]
    },
    {
      "name": "RightShoulder",
      "translation": [
        -9.534002304077148,
        9.54291820526123,
        -0.41958916187286377
      ],
      "rotation": [
        0.5259872674942017,
        -0.5475600361824036,
        0.49290579557418823,
        0.4249227046966553
      ],
      "children": [
        14
      ]
    },
    {
      "name": "head_end",
      "translation": [
        3.7922582626342773,
        46.286094665527344,
        -32.21390914916992
      ],
      "rotation": [
        -0.29882535338401794,
        5.5176652580257723e-8,
        -0.03517806529998779,
        0.9536592364311218
      ]
    },
    {
      "name": "headfront",
      "translation": [
        -3.7922544479370117,
        27.00979995727539,
        32.213871002197266
      ],
      "rotation": [
        0.42141416668891907,
        8.228045800251493e-9,
        0.04960940033197403,
        0.9055103659629822
      ]
    },
    {
      "name": "Head",
      "translation": [
        0.0000027418136596679688,
        6.863308906555176,
        -3.5762786865234375e-7
      ],
      "rotation": [
        0.36830371618270874,
        -0.0005679021705873311,
        0.04457729682326317,
        0.9286360740661621
      ],
      "children": [
        16,
        17
      ]
    },
    {
      "name": "neck",
      "translation": [
        0.9624284505844116,
        13.958827018737793,
        1.3067595958709717
      ],
      "rotation": [
        0.04792335256934166,
        0.04042334482073784,
        -0.032386865466833115,
        0.9975070953369141
      ],
      "children": [
        18
      ]
    },
    {
      "name": "Spine",
      "translation": [
        -1.1920928955078125e-7,
        16.174633026123047,
        4.76837158203125e-7
      ],
      "rotation": [
        -0.04499944671988487,
        -0.002835318446159363,
        0.00035124539863318205,
        0.9989829659461975
      ],
      "children": [
        11,
        15,
        19
      ]
    },
    {
      "name": "Spine01",
      "translation": [
        -8.344650268554688e-7,
        16.174633026123047,
        0.000003993511199951172
      ],
      "children": [
        20
      ]
    },
    {
      "name": "Spine02",
      "translation": [
        4.139438629150391,
        15.094629287719727,
        -4.078705787658691
      ],
      "rotation": [
        -0.10648470371961594,
        0.1526143103837967,
        -0.14848095178604126,
        0.9712483286857605
      ],
      "children": [
        21
      ]
    },
    {
      "name": "Hips",
      "translation": [
        -14.079144477844238,
        36.28106689453125,
        20.751928329467773
      ],
      "rotation": [
        0.07477633655071259,
        -0.12476683408021927,
        0.12476685643196106,
        0.981465756893158
      ],
      "children": [
        3,
        7,
        22
      ]
    },
    {
      "name": "char1",
      "scale": [
        0.009999999776482582,
        0.009999999776482582,
        0.009999999776482582
      ],
      "mesh": 0,
      "skin": 0
    },
    {
      "name": "Armature",
      "scale": [
        0.009999999776482582,
        0.009999999776482582,
        0.009999999776482582
      ],
      "children": [
        23
      ]
    }
  ],
  "skins": [
    {
      "name": "Armature",
      "inverseBindMatrices": 82,
      "joints": [
        23,
        3,
        2,
        1,
        0,
        7,
        6,
        5,
        4,
        22,
        21,
        20,
        11,
        10,
        9,
        8,
        15,
        14,
        13,
        12,
        19,
        18,
        16,
        17
      ]
    }
  ],
  "animations": [
    {
      "name": "Armature|walking_man|baselayer",
      "samplers": [
        {
          "input": 0,
          "output": 1,
          "interpolation": "LINEAR"
        },
        {
          "input": 0,
          "output": 2,
          "interpolation": "LINEAR"
        },
        {
          "input": 3,
          "output": 4,
          "interpolation": "STEP"
        },
        {
          "input": 3,
          "output": 5,
          "interpolation": "LINEAR"
        },
        {
          "input": 0,
          "output": 6,
          "interpolation": "LINEAR"
        },
        {
          "input": 3,
          "output": 7,
          "interpolation": "LINEAR"
        },
        {
          "input": 3,
          "output": 8,
          "interpolation": "LINEAR"
        },
        {
          "input": 0,
          "output": 9,
          "interpolation": "LINEAR"
        },
        {
          "input": 3,
          "output": 10,
          "interpolation": "STEP"
        },
        {
          "input": 3,
          "output": 11,
          "interpolation": "LINEAR"
        },
        {
          "input": 0,
          "output": 12,
          "interpolation": "LINEAR"
        },
        {
          "input": 3,
          "output": 13,
          "interpolation": "LINEAR"
        },
        {
          "input": 3,
          "output": 14,
          "interpolation": "LINEAR"
        },
        {
          "input": 0,
          "output": 15,
          "interpolation": "LINEAR"
        },
        {
          "input": 3,
          "output": 16,
          "interpolation": "LINEAR"
        },
        {
          "input": 3,
          "output": 17,
          "interpolation": "LINEAR"
        },
        {
          "input": 0,
          "output": 18,
          "interpolation": "LINEAR"
        },
        {
          "input": 3,
          "output": 19,
          "interpolation": "STEP"
        },
        {
          "input": 3,
          "output": 20,
          "interpolation": "LINEAR"
        },
        {
          "input": 0,
          "output": 21,
          "interpolation": "LINEAR"
        },
        {
          "input": 3,
          "output": 22,
          "interpolation": "LINEAR"
        },
        {
          "input": 3,
          "output": 23,
          "interpolation": "LINEAR"
        },
        {
          "input": 0,
          "output": 24,
          "interpolation": "LINEAR"
        },
        {
          "input": 3,
          "output": 25,
          "interpolation": "LINEAR"
        },
        {
          "input": 3,
          "output": 26,
          "interpolation": "LINEAR"
        },
        {
          "input": 72,
          "output": 73,
          "interpolation": "LINEAR"
        },
        {
          "input": 3,
          "output": 27,
          "interpolation": "STEP"
        },
        {
          "input": 3,
          "output": 28,
          "interpolation": "LINEAR"
        },
        {
          "input": 0,
          "output": 29,
          "interpolation": "LINEAR"
        },
        {
          "input": 3,
          "output": 30,
          "interpolation": "LINEAR"
        },
        {
          "input": 3,
          "output": 31,
          "interpolation": "LINEAR"
        },
        {
          "input": 0,
          "output": 32,
          "interpolation": "LINEAR"
        },
        {
          "input": 3,
          "output": 33,
          "interpolation": "STEP"
        },
        {
          "input": 3,
          "output": 34,
          "interpolation": "LINEAR"
        },
        {
          "input": 0,
          "output": 35,
          "interpolation": "LINEAR"
        },
        {
          "input": 3,
          "output": 36,
          "interpolation": "LINEAR"
        },
        {
          "input": 3,
          "output": 37,
          "interpolation": "LINEAR"
        },
        {
          "input": 0,
          "output": 38,
          "interpolation": "LINEAR"
        },
        {
          "input": 3,
          "output": 39,
          "interpolation": "STEP"
        },
        {
          "input": 3,
          "output": 40,
          "interpolation": "LINEAR"
        },
        {
          "input": 0,
          "output": 41,
          "interpolation": "LINEAR"
        },
        {
          "input": 3,
          "output": 42,
          "interpolation": "LINEAR"
        },
        {
          "input": 3,
          "output": 43,
          "interpolation": "LINEAR"
        },
        {
          "input": 0,
          "output": 44,
          "interpolation": "LINEAR"
        },
        {
          "input": 3,
          "output": 45,
          "interpolation": "LINEAR"
        },
        {
          "input": 3,
          "output": 46,
          "interpolation": "LINEAR"
        },
        {
          "input": 0,
          "output": 47,
          "interpolation": "LINEAR"
        },
        {
          "input": 3,
          "output": 48,
          "interpolation": "LINEAR"
        },
        {
          "input": 3,
          "output": 49,
          "interpolation": "LINEAR"
        },
        {
          "input": 0,
          "output": 50,
          "interpolation": "LINEAR"
        },
        {
          "input": 3,
          "output": 51,
          "interpolation": "LINEAR"
        },
        {
          "input": 3,
          "output": 52,
          "interpolation": "LINEAR"
        },
        {
          "input": 0,
          "output": 53,
          "interpolation": "LINEAR"
        },
        {
          "input": 3,
          "output": 54,
          "interpolation": "LINEAR"
        },
        {
          "input": 3,
          "output": 55,
          "interpolation": "LINEAR"
        },
        {
          "input": 0,
          "output": 56,
          "interpolation": "LINEAR"
        },
        {
          "input": 3,
          "output": 57,
          "interpolation": "LINEAR"
        },
        {
          "input": 3,
          "output": 58,
          "interpolation": "LINEAR"
        },
        {
          "input": 0,
          "output": 59,
          "interpolation": "LINEAR"
        },
        {
          "input": 3,
          "output": 60,
          "interpolation": "LINEAR"
        },
        {
          "input": 3,
          "output": 61,
          "interpolation": "LINEAR"
        },
        {
          "input": 0,
          "output": 62,
          "interpolation": "LINEAR"
        },
        {
          "input": 3,
          "output": 63,
          "interpolation": "LINEAR"
        },
        {
          "input": 3,
          "output": 64,
          "interpolation": "LINEAR"
        },
        {
          "input": 0,
          "output": 65,
          "interpolation": "LINEAR"
        },
        {
          "input": 3,
          "output": 66,
          "interpolation": "LINEAR"
        },
        {
          "input": 3,
          "output": 67,
          "interpolation": "LINEAR"
        },
        {
          "input": 74,
          "output": 75,
          "interpolation": "LINEAR"
        },
        {
          "input": 3,
          "output": 68,
          "interpolation": "STEP"
        },
        {
          "input": 3,
          "output": 69,
          "interpolation": "LINEAR"
        },
        {
          "input": 3,
          "output": 70,
          "interpolation": "LINEAR"
        },
        {
          "input": 3,
          "output": 71,
          "interpolation": "STEP"
        }
      ],
      "channels": [
        {
          "sampler": 0,
          "target": {
            "node": 23,
            "path": "translation"
          }
        },
        {
          "sampler": 1,
          "target": {
            "node": 23,
            "path": "rotation"
          }
        },
        {
          "sampler": 2,
          "target": {
            "node": 23,
            "path": "scale"
          }
        },
        {
          "sampler": 3,
          "target": {
            "node": 3,
            "path": "translation"
          }
        },
        {
          "sampler": 4,
          "target": {
            "node": 3,
            "path": "rotation"
          }
        },
        {
          "sampler": 5,
          "target": {
            "node": 3,
            "path": "scale"
          }
        },
        {
          "sampler": 6,
          "target": {
            "node": 2,
            "path": "translation"
          }
        },
        {
          "sampler": 7,
          "target": {
            "node": 2,
            "path": "rotation"
          }
        },
        {
          "sampler": 8,
          "target": {
            "node": 2,
            "path": "scale"
          }
        },
        {
          "sampler": 9,
          "target": {
            "node": 1,
            "path": "translation"
          }
        },
        {
          "sampler": 10,
          "target": {
            "node": 1,
            "path": "rotation"
          }
        },
        {
          "sampler": 11,
          "target": {
            "node": 1,
            "path": "scale"
          }
        },
        {
          "sampler": 12,
          "target": {
            "node": 0,
            "path": "translation"
          }
        },
        {
          "sampler": 13,
          "target": {
            "node": 0,
            "path": "rotation"
          }
        },
        {
          "sampler": 14,
          "target": {
            "node": 0,
            "path": "scale"
          }
        },
        {
          "sampler": 15,
          "target": {
            "node": 7,
            "path": "translation"
          }
        },
        {
          "sampler": 16,
          "target": {
            "node": 7,
            "path": "rotation"
          }
        },
        {
          "sampler": 17,
          "target": {
            "node": 7,
            "path": "scale"
          }
        },
        {
          "sampler": 18,
          "target": {
            "node": 6,
            "path": "translation"
          }
        },
        {
          "sampler": 19,
          "target": {
            "node": 6,
            "path": "rotation"
          }
        },
        {
          "sampler": 20,
          "target": {
            "node": 6,
            "path": "scale"
          }
        },
        {
          "sampler": 21,
          "target": {
            "node": 5,
            "path": "translation"
          }
        },
        {
          "sampler": 22,
          "target": {
            "node": 5,
            "path": "rotation"
          }
        },
        {
          "sampler": 23,
          "target": {
            "node": 5,
            "path": "scale"
          }
        },
        {
          "sampler": 24,
          "target": {
            "node": 4,
            "path": "translation"
          }
        },
        {
          "sampler": 25,
          "target": {
            "node": 4,
            "path": "rotation"
          }
        },
        {
          "sampler": 26,
          "target": {
            "node": 4,
            "path": "scale"
          }
        },
        {
          "sampler": 27,
          "target": {
            "node": 22,
            "path": "translation"
          }
        },
        {
          "sampler": 28,
          "target": {
            "node": 22,
            "path": "rotation"
          }
        },
        {
          "sampler": 29,
          "target": {
            "node": 22,
            "path": "scale"
          }
        },
        {
          "sampler": 30,
          "target": {
            "node": 21,
            "path": "translation"
          }
        },
        {
          "sampler": 31,
          "target": {
            "node": 21,
            "path": "rotation"
          }
        },
        {
          "sampler": 32,
          "target": {
            "node": 21,
            "path": "scale"
          }
        },
        {
          "sampler": 33,
          "target": {
            "node": 20,
            "path": "translation"
          }
        },
        {
          "sampler": 34,
          "target": {
            "node": 20,
            "path": "rotation"
          }
        },
        {
          "sampler": 35,
          "target": {
            "node": 20,
            "path": "scale"
          }
        },
        {
          "sampler": 36,
          "target": {
            "node": 11,
            "path": "translation"
          }
        },
        {
          "sampler": 37,
          "target": {
            "node": 11,
            "path": "rotation"
          }
        },
        {
          "sampler": 38,
          "target": {
            "node": 11,
            "path": "scale"
          }
        },
        {
          "sampler": 39,
          "target": {
            "node": 10,
            "path": "translation"
          }
        },
        {
          "sampler": 40,
          "target": {
            "node": 10,
            "path": "rotation"
          }
        },
        {
          "sampler": 41,
          "target": {
            "node": 10,
            "path": "scale"
          }
        },
        {
          "sampler": 42,
          "target": {
            "node": 9,
            "path": "translation"
          }
        },
        {
          "sampler": 43,
          "target": {
            "node": 9,
            "path": "rotation"
          }
        },
        {
          "sampler": 44,
          "target": {
            "node": 9,
            "path": "scale"
          }
        },
        {
          "sampler": 45,
          "target": {
            "node": 8,
            "path": "translation"
          }
        },
        {
          "sampler": 46,
          "target": {
            "node": 8,
            "path": "rotation"
          }
        },
        {
          "sampler": 47,
          "target": {
            "node": 8,
            "path": "scale"
          }
        },
        {
          "sampler": 48,
          "target": {
            "node": 15,
            "path": "translation"
          }
        },
        {
          "sampler": 49,
          "target": {
            "node": 15,
            "path": "rotation"
          }
        },
        {
          "sampler": 50,
          "target": {
            "node": 15,
            "path": "scale"
          }
        },
        {
          "sampler": 51,
          "target": {
            "node": 14,
            "path": "translation"
          }
        },
        {
          "sampler": 52,
          "target": {
            "node": 14,
            "path": "rotation"
          }
        },
        {
          "sampler": 53,
          "target": {
            "node": 14,
            "path": "scale"
          }
        },
        {
          "sampler": 54,
          "target": {
            "node": 13,
            "path": "translation"
          }
        },
        {
          "sampler": 55,
          "target": {
            "node": 13,
            "path": "rotation"
          }
        },
        {
          "sampler": 56,
          "target": {
            "node": 13,
            "path": "scale"
          }
        },
        {
          "sampler": 57,
          "target": {
            "node": 12,
            "path": "translation"
          }
        },
        {
          "sampler": 58,
          "target": {
            "node": 12,
            "path": "rotation"
          }
        },
        {
          "sampler": 59,
          "target": {
            "node": 12,
            "path": "scale"
          }
        },
        {
          "sampler": 60,
          "target": {
            "node": 19,
            "path": "translation"
          }
        },
        {
          "sampler": 61,
          "target": {
            "node": 19,
            "path": "rotation"
          }
        },
        {
          "sampler": 62,
          "target": {
            "node": 19,
            "path": "scale"
          }
        },
        {
          "sampler": 63,
          "target": {
            "node": 18,
            "path": "translation"
          }
        },
        {
          "sampler": 64,
          "target": {
            "node": 18,
            "path": "rotation"
          }
        },
        {
          "sampler": 65,
          "target": {
            "node": 18,
            "path": "scale"
          }
        },
        {
          "sampler": 66,
          "target": {
            "node": 16,
            "path": "translation"
          }
        },
        {
          "sampler": 67,
          "target": {
            "node": 16,
            "path": "rotation"
          }
        },
        {
          "sampler": 68,
          "target": {
            "node": 16,
            "path": "scale"
          }
        },
        {
          "sampler": 69,
          "target": {
            "node": 17,
            "path": "translation"
          }
        },
        {
          "sampler": 70,
          "target": {
            "node": 17,
            "path": "rotation"
          }
        },
        {
          "sampler": 71,
          "target": {
            "node": 17,
            "path": "scale"
          }
        }
      ]
    }
  ],
  "scenes": [
    {
      "name": "Scene",
      "nodes": [
        25,
        24
      ]
    }
  ],
  "scene": 0,
  "extensionsUsed": [
    "EXT_texture_webp",
    "KHR_materials_ior",
    "KHR_materials_specular",
    "KHR_mesh_quantization"
  ],
  "extensionsRequired": [
    "EXT_texture_webp",
    "KHR_mesh_quantization"
  ]
}